<svg clip-rule="evenodd" fill-rule="evenodd" height="512" image-rendering="optimizeQuality" shape-rendering="geometricPrecision" text-rendering="geometricPrecision" viewBox="0 0 1.70666 1.70666" width="512" xmlns="http://www.w3.org/2000/svg"><g id="Layer_x0020_1"><path d="m1.30488 1.5908h-.27022-.200394-.789016c-.0110354 0-.0199961-.0089685-.0199961-.0199961v-.778421c0-.0110394.00896063-.0199961.0199961-.0199961h.143516l-.185937-.322055c-.00551181-.00956693-.00225197-.0218031.00731496-.027311l.527343-.304465c.00958268-.00552362.0218031-.00225197.027311.0073189l.0687087.119012.0879252-.0879252c.0175512-.0175433.0482717-.0175276.0657795 0l.905709.905705c.0181378.0181378.0181339.0476457 0 .0657953l-.137213.137201c-.00875591.00875197-.020437.0135827-.032878.0135827-.0124567 0-.0241339-.00483465-.0328976-.0135945l-.165043-.165043v.470197c-.00001181.0110433-.0089685.0199961-.0200079.0199961zm-1.06993-.818413h.0597126l-.117925-.20426c-.0077126-.0133622.00032284-.0231063.0115945-.0296142.0316772-.0182913.0425748-.0589803.0242756-.0906969-.00551181-.00955118-.00225197-.0217835.00731496-.027311l.214657-.123953c.0306299-.0176496.0272559.0405354.0849134.0405354.0213504 0 .0377441-.0147953.0502835-.0108898.00027559-.00323228.00097244-.00639764.002-.00948031.00187008-.00827165.00601969-.016122.0124449-.0225472l.00837795-.00837795c.00387795-.00405512.00766142-.00768898.0108189-.0108189l.00081496-.00081496-.0640709-.110969-.492709.284465.187496.324732zm.409146-.482039c-.00484252.00699606-.0124094.0135157-.019122.0194291-.00590945.00600787-.0102638.010437-.0124055.0125787-.00125197.00188189-.00196457.00365748-.00192913.0053189v.00000787l.00001575.00015748c.00014567.00125197.00064567.0024685.00149606.0034685l.0001063.00012205.00022835.00024016.446209.446205.00038976.00037402.259941.259929.00049606.00051969.198681.198677.00920472.00001575c.0144331-.0144094.139102-.13585.139102-.141815 0-.0010315-.00025197-.00298819-.00187402-.00461024l-.905705-.905736c-.00164173-.00162992-.00358268-.00188189-.00461024-.00188189-.00435827 0-.0692992.0654606-.110224.107zm.213902.343374.080063.138665h.0586024l-.138665-.138665zm.0339094.138665-.143142-.247886-.141209-.141213.224638.389098h.0597126zm-.551055 0h.061689c.00823622-.159807.227744-.218563.31176-.0730394.00850787.0147323.0201732.046811.0226575.0730394h.0490354l-.231642-.401205c-.0412126.0143543-.0869449.00194094-.115437-.0309409l-.183303.105846c.0148031.0425472.00097244.0905118-.0347165.118559l.119957.20774zm.0670433-.140291c-.013122 0-.0253425-.00703937-.0318819-.0183701l-.0453858-.0785827c-.0101299-.0175512-.00412992-.0400591.0134567-.0502126.117819-.0680472.0981693-.0746339.169657.0492874.010122.0175669.00408268.0400945-.0134567.0502126-.0220748.0127362-.0747913.0476654-.0923898.0476654zm-.0409961-.114165.0421457.0729921.0684449-.0395197-.0421457-.0729921zm.075811.254457h.253567c-.00756693-.0921535-.10939-.14637-.190366-.0996063-.0366929.021189-.0598425.0582795-.0632008.0996063zm.0331417.713157c-.0248858 0-.0576535.00587402-.0576535-.0199961 0-.0258701.0327677-.0199961.0576535-.0199961.026315 0 .0263307.0399921 0 .0399921zm-.108937 0h-.224339c-.0263189 0-.0263189-.0399921 0-.0399921h.224323c.0263189 0 .0263228.0399921.00001575.0399921zm.108953-.0855984h-.224323c-.0263189 0-.0263189-.0399921 0-.0399921h.224323c.0263228 0 .0263228.0399921 0 .0399921zm-.295618 0c-.0248858 0-.0576535.00587402-.0576535-.0199961 0-.0258701.0327677-.0199961.0576535-.0199961.0263228 0 .0263268.0399921 0 .0399921zm.295602-.085622c-.0248858 0-.0576535.00587402-.0576535-.0199961 0-.0258701.0327677-.0199961.0576535-.0199961.0263228 0 .0263268.0399921 0 .0399921zm-.108953 0h-.224323c-.0263189 0-.0263189-.0399921 0-.0399921h.224323c.0263189 0 .0263346.0399921 0 .0399921zm.108969-.0856102h-.224323c-.0263189 0-.0263189-.0399961 0-.0399961h.224323c.0263228 0 .0263228.0399961 0 .0399961zm-.295618 0c-.0248858 0-.0576535.00587008-.0576535-.02 0-.0258661.0327677-.0199961.0576535-.0199961.0263228 0 .0263268.0399961 0 .0399961zm.784075-.105248h-.578524c-.0212638 0-.0385591-.0173031-.0385591-.038563v-.145071c0-.0212598.0173031-.0385748.0385591-.0385748h.578539c.0212638 0 .0385591.017315.0385591.0385748v.145071c0 .0212638-.017311.038563-.0385748.038563zm-.577106-.0400039h.575681v-.142213h-.575681zm.438752.467346.458898-.458921v-.0312717l-.24822-.248236h-.110122-.105618-.104512-.293791-.0933071-.105898-.158154v.738429h.760724zm.458898-.202197-.202197.202197h.202197zm-.258732.202197.258732-.258732v-.143602l-.402319.402335h.143587z" fill="#000002"/><path d="m.409047.590917.068445-.039519-.042146-.072992-.068444.039519z" fill="#6b809b" stroke="#50b350" stroke-width=".003"/><path d="m.344087.484925c.117819-.0680472.0981693-.0746339.169657.0492874.010122.0175669.00408268.0400945-.0134567.0502126-.0220748.0127362-.0747913.0476654-.0923898.0476654-.013122 0-.0253425-.00703937-.0318819-.0183701l-.0453858-.0785827c-.0101299-.0175512-.00412992-.0400591.0134567-.0502126zm.392874.287457h.0490354l-.231642-.401205c-.0412126.0143543-.0869449.00194094-.115437-.0309409l-.183303.105846c.0148031.0425472.00097244.0905118-.0347165.118559l.119957.20774h.061689c.00823622-.159807.227744-.218563.31176-.0730394.00850787.0147323.0201732.046811.0226575.0730394z" fill="#98d095"/><path d="m.69628.772382c-.00756693-.0921535-.10939-.14637-.190366-.0996063-.0366929.021189-.0598425.0582795-.0632008.0996063h.253567z" fill="#50b350"/><path d="m.519496.337083c.0213504 0 .0377441-.0147953.0502835-.0108898.00027559-.00323228.00097244-.00639764.002-.00948031.00187008-.00827165.00601969-.016122.0124449-.0225472l.00837795-.00837795c.00387795-.00405512.00766142-.00768898.0108189-.0108189l.00081496-.00081496-.0640709-.110969-.492709.284465.187496.324732h.0597126l-.117925-.20426c-.0077126-.0133622.00032284-.0231063.0115945-.0296142.0316772-.0182913.0425748-.0589803.0242756-.0906969-.00551181-.00955118-.00225197-.0217835.00731496-.027311l.214657-.123953c.0306299-.0176496.0272559.0405354.0849134.0405354z" fill="#50b350"/><path d="m.61248846.33166519.446209.446205.00038976.00037402.259941.259929.00049606.00051969.198681.198677.00920472.00001575c.0144331-.0144094.139102-.13585.139102-.141815 0-.0010315-.00025197-.00298819-.00187402-.00461024l-.905705-.905736c-.00164173-.00162992-.00358268-.00188189-.00461024-.00188189-.00435827 0-.0692992.0654606-.110224.107-.00484252.00699606-.0124094.0135157-.019122.0194291l-.0124055.0125787c-.00125197.00188189-.00196457.00365748-.00192913.00532677l.00001575.00015748c.00014567.00125197.00064567.0024685.00149606.0034685l.0001063.00012205.00022835.00024016z" fill="#dd7f66"/><path d="m.891909.772382-.143141-.247886-.141209-.141213.224638.389099z" fill="#50b350"/><path d="m.962902.941244h-.575682v.142216h.575682z" fill="#f9f3f1"/><path d="m.964343.901252c.0212638 0 .0385591.017315.0385591.0385748v.145071c0 .0212638-.017311.038563-.0385748.038563h-.578524c-.0212638 0-.0385591-.0173031-.0385591-.038563v-.145071c0-.0212598.0173031-.0385748.0385591-.0385748h.578539zm.0723071-.088878h-.110122-.105618-.104512-.293791-.0933071-.105898-.158154v.738429h.760724l.458898-.458921v-.0312717l-.24822-.248236zm-.560795.633173c.026315 0 .0263307.0399921 0 .0399921-.0248858 0-.0576535.00587402-.0576535-.0199961 0-.0258701.0327677-.0199961.0576535-.0199961zm-.224307-.0855984h.224323c.0263228 0 .0263228.0399921 0 .0399921h-.224323c-.0263189 0-.0263189-.0399921 0-.0399921zm-.108969.0855984h.224323c.0263189 0 .0263228.0399921.00001575.0399921h-.224339c-.0263189 0-.0263189-.0399921 0-.0399921zm.333291-.256835c.0263228 0 .0263228.0399961 0 .0399961h-.224323c-.0263189 0-.0263189-.0399961 0-.0399961zm-.108969.0856142c.0263189 0 .0263346.0399921 0 .0399921h-.224323c-.0263189 0-.0263189-.0399921 0-.0399921zm-.18665.085622c.0263228 0 .0263268.0399921 0 .0399921-.0248858 0-.0576535.00587402-.0576535-.0199961 0-.0258701.0327677-.0199961.0576535-.0199961zm.295602-.085622c.0263228 0 .0263268.0399921 0 .0399921-.0248858 0-.0576535.00587402-.0576535-.0199961 0-.0258701.0327677-.0199961.0576535-.0199961zm-.295602-.0856142c.0263228 0 .0263268.0399961 0 .0399961-.0248858 0-.0576535.00587008-.0576535-.02 0-.0258661.0327677-.0199961.0576535-.0199961z" fill="#e49280"/><path d="m1.28487 1.14847-.402319.40233h.143589l.25873-.25873z" fill="#fedba6"/><path d="m1.28487 1.34861-.2022.20219h.2022z" fill="#e49280"/></g></svg>