<svg id="Layer_1" height="512" viewBox="0 0 48 48" width="512" xmlns="http://www.w3.org/2000/svg"><g><g><g fill="#e4e7e7"><path d="m21.7 19.8c-2.5.7-4.5 2.6-5.3 5.1l-6.3 2.5-5.4-4.7 13.9-5.6z"/><path d="m43.3 22.7-5.4 4.7-6.3-2.5c-.8-2.4-2.8-4.4-5.3-5.1l3.1-2.7z"/><path d="m29.4 37.7 13.9-5.6-5.4-4.7-13.9 5.6z"/><path d="m18.6 37.7-13.9-5.6 5.4-4.7 13.9 5.6z"/></g><path d="m21.7 19.8c-2.5.7-4.5 2.6-5.3 5.1l-6.3 2.5-5.4-4.7 13.9-5.6z" style="fill:none;stroke:#324d5b;stroke-linecap:round;stroke-linejoin:round;stroke-miterlimit:10;stroke-width:1.5"/><path d="m43.3 22.7-5.4 4.7-6.3-2.5c-.8-2.4-2.8-4.4-5.3-5.1l3.1-2.7z" style="fill:none;stroke:#324d5b;stroke-linecap:round;stroke-linejoin:round;stroke-miterlimit:10;stroke-width:1.5"/><g style="fill:none;stroke:#324d5b;stroke-linecap:round;stroke-linejoin:round;stroke-miterlimit:10;stroke-width:1.5"><path d="m24 1.4v12.6"/><path d="m21.3 11.3 2.7 2.7 2.7-2.7"/></g><g style="fill:none;stroke:#324d5b;stroke-linecap:round;stroke-linejoin:round;stroke-miterlimit:10;stroke-width:1.5"><g><path d="m17.4.8v8.5"/><path d="m14.8 6.6 2.6 2.7 2.7-2.7"/></g><g><path d="m30.6.8v8.5"/><path d="m27.9 6.6 2.7 2.7 2.6-2.7"/></g></g><path d="m31.7 29.9-7.7 3.1-7.7-3.1c-.2-.7-.4-1.5-.4-2.4 0-4.5 3.6-8.1 8.1-8.1s8.1 3.6 8.1 8.1c0 .8-.1 1.6-.4 2.4z" fill="#ffd576"/><path d="m31.7 29.9-7.7 3.1-7.7-3.1c-.2-.7-.4-1.5-.4-2.4 0-4.5 3.6-8.1 8.1-8.1s8.1 3.6 8.1 8.1c0 .8-.1 1.6-.4 2.4z" style="fill:none;stroke:#324d5b;stroke-linecap:round;stroke-linejoin:round;stroke-miterlimit:10;stroke-width:1.5"/><path d="m37.9 34.3v7.3l-13.9 5.7v-14.3l5.4 4.7z" fill="#56cced"/><path d="m24 33v14.3l-13.9-5.7v-7.3l8.5 3.4z" fill="#56cced"/><path d="m37.9 34.3v7.3l-13.9 5.7v-14.3l5.4 4.7z" style="fill:none;stroke:#324d5b;stroke-linecap:round;stroke-linejoin:round;stroke-miterlimit:10;stroke-width:1.5"/><path d="m29.4 37.7 13.9-5.6-5.4-4.7-13.9 5.6z" style="fill:none;stroke:#324d5b;stroke-linecap:round;stroke-linejoin:round;stroke-miterlimit:10;stroke-width:1.5"/><path d="m18.6 37.7-13.9-5.6 5.4-4.7 13.9 5.6z" style="fill:none;stroke:#324d5b;stroke-linecap:round;stroke-linejoin:round;stroke-miterlimit:10;stroke-width:1.5"/><path d="m24 33v14.3l-13.9-5.7v-7.3l8.5 3.4z" style="fill:none;stroke:#324d5b;stroke-linecap:round;stroke-linejoin:round;stroke-miterlimit:10;stroke-width:1.5"/><g><path d="m26.7 30.5c-.2.3-.5.6-.9.8s-.9.3-1.4.3v.8c0 .1 0 .2-.1.2-.1.1-.2.1-.3.1s-.2 0-.2-.1c-.1-.1-.1-.1-.1-.3v-.8c-.8-.1-1.6-.2-2.3-.5-.1 0-.2-.1-.2-.2-.2 0-.2-.1-.2-.2s0-.2.1-.3.2-.1.3-.1h.2c.6.3 1.3.4 2 .5v-2.7c-.5-.1-1-.3-1.3-.4-.4-.2-.7-.4-.9-.7s-.4-.7-.4-1.1.1-.8.3-1.1.5-.6.9-.8.9-.4 1.4-.4v-.8c0-.1 0-.2.1-.3s.1-.1.2-.1.2 0 .3.1.1.2.1.3v.8c.8 0 1.4.2 2 .4.2.1.3.2.3.5 0 .1 0 .2-.1.3s-.2.1-.3.1c0 0-.1 0-.2 0-.5-.2-1.1-.3-1.7-.3v2.7c.6.1 1 .3 1.4.4.4.2.7.4.9.7s.4.7.4 1.2c0 .3-.1.6-.3 1zm-4.2-4.1c.3.2.6.3 1.1.5v-2.5c-.5.1-.8.2-1.1.4s-.4.5-.4.9c0 .3.2.5.4.7zm3.5 2.9c0-.3-.1-.5-.4-.7s-.7-.3-1.2-.5v2.5c1-.1 1.6-.5 1.6-1.3z" fill="#324d5b"/></g></g></g></svg>